v  -0.5  -0.5  -0.5
v  -0.5  -0.5  0.5

v  -0.5  0.5  -0.5
v  -0.5  0.5  0.5

v  0.5  -0.5  -0.5
v  0.5  -0.5  0.5

v  0.5  0.5  -0.5
v  0.5  0.5  0.5

vt 0.0 1.0
vt 1.0 1.0
vt 1.0 0.0 
vt 0.0 0.0

vn  0.0  0.0  1.0
vn  0.0  0.0 -1.0
vn  0.0  1.0  0.0
vn  0.0 -1.0  0.0
vn  1.0  0.0  0.0
vn -1.0  0.0  0.0
 
# back face 
f  1/2/2  7/4/2  5/1/2
f  1/2/2  3/3/2  7/4/2 

# left face
f  1/1/6  4/3/6  3/4/6 
f  1/1/6  2/2/6  4/3/6 

# top face
f  3/4/3  8/2/3  7/3/3 
f  3/4/3  4/1/3  8/2/3 

# right face
f  5/2/5  7/3/5  8/4/5 
f  5/2/5  8/4/5  6/1/5 

# bottom face
f  1/4/4  5/3/4  6/2/4 
f  1/4/4  6/2/4  2/1/4 

# front face
f  2/1/1  6/2/1  8/3/1 
f  2/1/1  8/3/1  4/4/1 
